<mxfile host="app.diagrams.net" agent="Mozilla/5.0 (Windows NT 10.0; Win64; x64) AppleWebKit/537.36 (KHTML, like Gecko) Chrome/122.0.0.0 Safari/537.36" version="24.8.0">
  <diagram name="Page-1" id="97916047-d0de-89f5-080d-49f4d83e522f">
    <mxGraphModel dx="1085" dy="615" grid="1" gridSize="10" guides="1" tooltips="1" connect="1" arrows="1" fold="1" page="1" pageScale="1.5" pageWidth="1169" pageHeight="827" background="none" math="0" shadow="0">
      <root>
        <mxCell id="0" />
        <mxCell id="1" parent="0" />
        <mxCell id="LzSMEyJ2_mdjWp6q9Ydg-65" value="" style="edgeStyle=orthogonalEdgeStyle;rounded=1;orthogonalLoop=1;jettySize=auto;html=1;curved=0;strokeWidth=3;" edge="1" parent="1" source="3" target="LzSMEyJ2_mdjWp6q9Ydg-55">
          <mxGeometry relative="1" as="geometry" />
        </mxCell>
        <mxCell id="LzSMEyJ2_mdjWp6q9Ydg-66" style="edgeStyle=orthogonalEdgeStyle;rounded=1;orthogonalLoop=1;jettySize=auto;html=1;curved=0;strokeWidth=3;" edge="1" parent="1" source="3" target="LzSMEyJ2_mdjWp6q9Ydg-56">
          <mxGeometry relative="1" as="geometry" />
        </mxCell>
        <mxCell id="LzSMEyJ2_mdjWp6q9Ydg-67" style="edgeStyle=orthogonalEdgeStyle;rounded=1;orthogonalLoop=1;jettySize=auto;html=1;entryX=0.5;entryY=0;entryDx=0;entryDy=0;curved=0;strokeWidth=3;" edge="1" parent="1" target="LzSMEyJ2_mdjWp6q9Ydg-57">
          <mxGeometry relative="1" as="geometry">
            <mxPoint x="772" y="390" as="sourcePoint" />
            <Array as="points">
              <mxPoint x="772" y="420" />
              <mxPoint x="1055" y="420" />
            </Array>
          </mxGeometry>
        </mxCell>
        <mxCell id="3" value="数据底座" style="rounded=1;fillColor=#10739E;strokeColor=none;shadow=1;gradientColor=none;fontStyle=1;fontColor=#FFFFFF;fontSize=14;arcSize=50;" parent="1" vertex="1">
          <mxGeometry x="662" y="345.5" width="220" height="44.5" as="geometry" />
        </mxCell>
        <mxCell id="LzSMEyJ2_mdjWp6q9Ydg-61" style="edgeStyle=orthogonalEdgeStyle;rounded=0;orthogonalLoop=1;jettySize=auto;html=1;" edge="1" parent="1" source="4" target="LzSMEyJ2_mdjWp6q9Ydg-60">
          <mxGeometry relative="1" as="geometry" />
        </mxCell>
        <mxCell id="LzSMEyJ2_mdjWp6q9Ydg-72" value="" style="edgeStyle=orthogonalEdgeStyle;rounded=0;orthogonalLoop=1;jettySize=auto;html=1;" edge="1" parent="1" source="4" target="LzSMEyJ2_mdjWp6q9Ydg-70">
          <mxGeometry relative="1" as="geometry" />
        </mxCell>
        <mxCell id="LzSMEyJ2_mdjWp6q9Ydg-73" value="" style="edgeStyle=orthogonalEdgeStyle;rounded=0;orthogonalLoop=1;jettySize=auto;html=1;" edge="1" parent="1" source="4" target="LzSMEyJ2_mdjWp6q9Ydg-70">
          <mxGeometry relative="1" as="geometry" />
        </mxCell>
        <mxCell id="LzSMEyJ2_mdjWp6q9Ydg-74" style="edgeStyle=orthogonalEdgeStyle;rounded=0;orthogonalLoop=1;jettySize=auto;html=1;entryX=0.75;entryY=0;entryDx=0;entryDy=0;" edge="1" parent="1" source="4" target="LzSMEyJ2_mdjWp6q9Ydg-69">
          <mxGeometry relative="1" as="geometry" />
        </mxCell>
        <mxCell id="4" value="系统管理员" style="rounded=1;fillColor=#10739E;strokeColor=none;shadow=1;gradientColor=none;fontStyle=1;fontColor=#FFFFFF;fontSize=14;" parent="1" vertex="1">
          <mxGeometry x="302" y="455.5" width="128" height="44.5" as="geometry" />
        </mxCell>
        <mxCell id="LzSMEyJ2_mdjWp6q9Ydg-80" style="edgeStyle=orthogonalEdgeStyle;rounded=0;orthogonalLoop=1;jettySize=auto;html=1;" edge="1" parent="1" source="5" target="LzSMEyJ2_mdjWp6q9Ydg-75">
          <mxGeometry relative="1" as="geometry" />
        </mxCell>
        <mxCell id="LzSMEyJ2_mdjWp6q9Ydg-81" value="" style="edgeStyle=orthogonalEdgeStyle;rounded=0;orthogonalLoop=1;jettySize=auto;html=1;" edge="1" parent="1" source="5" target="LzSMEyJ2_mdjWp6q9Ydg-77">
          <mxGeometry relative="1" as="geometry" />
        </mxCell>
        <mxCell id="LzSMEyJ2_mdjWp6q9Ydg-82" style="edgeStyle=orthogonalEdgeStyle;rounded=0;orthogonalLoop=1;jettySize=auto;html=1;entryX=0.75;entryY=0;entryDx=0;entryDy=0;" edge="1" parent="1" source="5" target="LzSMEyJ2_mdjWp6q9Ydg-78">
          <mxGeometry relative="1" as="geometry" />
        </mxCell>
        <mxCell id="LzSMEyJ2_mdjWp6q9Ydg-83" style="edgeStyle=orthogonalEdgeStyle;rounded=0;orthogonalLoop=1;jettySize=auto;html=1;" edge="1" parent="1" source="5" target="LzSMEyJ2_mdjWp6q9Ydg-76">
          <mxGeometry relative="1" as="geometry" />
        </mxCell>
        <mxCell id="5" value="安全管理员" style="rounded=1;fillColor=#10739E;strokeColor=none;shadow=1;gradientColor=none;fontStyle=1;fontColor=#FFFFFF;fontSize=14;" parent="1" vertex="1">
          <mxGeometry x="470" y="457.75" width="118" height="44.5" as="geometry" />
        </mxCell>
        <mxCell id="LzSMEyJ2_mdjWp6q9Ydg-108" style="edgeStyle=orthogonalEdgeStyle;rounded=0;orthogonalLoop=1;jettySize=auto;html=1;" edge="1" parent="1" source="6" target="LzSMEyJ2_mdjWp6q9Ydg-105">
          <mxGeometry relative="1" as="geometry" />
        </mxCell>
        <mxCell id="LzSMEyJ2_mdjWp6q9Ydg-109" style="edgeStyle=orthogonalEdgeStyle;rounded=0;orthogonalLoop=1;jettySize=auto;html=1;entryX=0.5;entryY=0;entryDx=0;entryDy=0;" edge="1" parent="1" source="6" target="LzSMEyJ2_mdjWp6q9Ydg-106">
          <mxGeometry relative="1" as="geometry" />
        </mxCell>
        <mxCell id="LzSMEyJ2_mdjWp6q9Ydg-110" style="edgeStyle=orthogonalEdgeStyle;rounded=0;orthogonalLoop=1;jettySize=auto;html=1;entryX=0.5;entryY=0;entryDx=0;entryDy=0;" edge="1" parent="1" target="LzSMEyJ2_mdjWp6q9Ydg-107">
          <mxGeometry relative="1" as="geometry">
            <mxPoint x="1240" y="530" as="sourcePoint" />
          </mxGeometry>
        </mxCell>
        <mxCell id="6" value="系统外部人员" style="rounded=1;fillColor=#10739E;strokeColor=none;shadow=1;gradientColor=none;fontStyle=1;fontColor=#FFFFFF;fontSize=14;" parent="1" vertex="1">
          <mxGeometry x="1150" y="453.88" width="130" height="46.12" as="geometry" />
        </mxCell>
        <mxCell id="30" value="" style="edgeStyle=elbowEdgeStyle;elbow=vertical;strokeWidth=4;endArrow=block;endFill=1;fontStyle=1;strokeColor=#23445D;" parent="1" source="3" target="5" edge="1">
          <mxGeometry x="22" y="165.5" width="100" height="100" as="geometry">
            <mxPoint x="22" y="265.5" as="sourcePoint" />
            <mxPoint x="122" y="165.5" as="targetPoint" />
          </mxGeometry>
        </mxCell>
        <mxCell id="31" value="" style="edgeStyle=elbowEdgeStyle;elbow=vertical;strokeWidth=4;endArrow=block;endFill=1;fontStyle=1;strokeColor=#23445D;" parent="1" source="3" target="4" edge="1">
          <mxGeometry x="22" y="165.5" width="100" height="100" as="geometry">
            <mxPoint x="22" y="265.5" as="sourcePoint" />
            <mxPoint x="122" y="165.5" as="targetPoint" />
          </mxGeometry>
        </mxCell>
        <mxCell id="32" value="" style="edgeStyle=elbowEdgeStyle;elbow=vertical;strokeWidth=4;endArrow=block;endFill=1;fontStyle=1;strokeColor=#23445D;" parent="1" source="3" target="6" edge="1">
          <mxGeometry x="22" y="165.5" width="100" height="100" as="geometry">
            <mxPoint x="22" y="265.5" as="sourcePoint" />
            <mxPoint x="122" y="165.5" as="targetPoint" />
          </mxGeometry>
        </mxCell>
        <mxCell id="LzSMEyJ2_mdjWp6q9Ydg-88" style="edgeStyle=orthogonalEdgeStyle;rounded=0;orthogonalLoop=1;jettySize=auto;html=1;entryX=0.5;entryY=0;entryDx=0;entryDy=0;" edge="1" parent="1" source="LzSMEyJ2_mdjWp6q9Ydg-55" target="LzSMEyJ2_mdjWp6q9Ydg-85">
          <mxGeometry relative="1" as="geometry" />
        </mxCell>
        <mxCell id="LzSMEyJ2_mdjWp6q9Ydg-89" style="edgeStyle=orthogonalEdgeStyle;rounded=0;orthogonalLoop=1;jettySize=auto;html=1;entryX=0.75;entryY=0;entryDx=0;entryDy=0;" edge="1" parent="1" source="LzSMEyJ2_mdjWp6q9Ydg-55" target="LzSMEyJ2_mdjWp6q9Ydg-86">
          <mxGeometry relative="1" as="geometry" />
        </mxCell>
        <mxCell id="LzSMEyJ2_mdjWp6q9Ydg-55" value="审计管理员" style="rounded=1;fillColor=#10739E;strokeColor=none;shadow=1;gradientColor=none;fontStyle=1;fontColor=#FFFFFF;fontSize=14;" vertex="1" parent="1">
          <mxGeometry x="640" y="457.75" width="130" height="42.25" as="geometry" />
        </mxCell>
        <mxCell id="LzSMEyJ2_mdjWp6q9Ydg-94" style="edgeStyle=orthogonalEdgeStyle;rounded=0;orthogonalLoop=1;jettySize=auto;html=1;entryX=0.5;entryY=0;entryDx=0;entryDy=0;" edge="1" parent="1" source="LzSMEyJ2_mdjWp6q9Ydg-56" target="LzSMEyJ2_mdjWp6q9Ydg-90">
          <mxGeometry relative="1" as="geometry" />
        </mxCell>
        <mxCell id="LzSMEyJ2_mdjWp6q9Ydg-95" style="edgeStyle=orthogonalEdgeStyle;rounded=0;orthogonalLoop=1;jettySize=auto;html=1;entryX=0.5;entryY=0;entryDx=0;entryDy=0;" edge="1" parent="1" source="LzSMEyJ2_mdjWp6q9Ydg-56" target="LzSMEyJ2_mdjWp6q9Ydg-91">
          <mxGeometry relative="1" as="geometry" />
        </mxCell>
        <mxCell id="LzSMEyJ2_mdjWp6q9Ydg-96" style="edgeStyle=orthogonalEdgeStyle;rounded=0;orthogonalLoop=1;jettySize=auto;html=1;" edge="1" parent="1" source="LzSMEyJ2_mdjWp6q9Ydg-56" target="LzSMEyJ2_mdjWp6q9Ydg-92">
          <mxGeometry relative="1" as="geometry" />
        </mxCell>
        <mxCell id="LzSMEyJ2_mdjWp6q9Ydg-97" style="edgeStyle=orthogonalEdgeStyle;rounded=0;orthogonalLoop=1;jettySize=auto;html=1;" edge="1" parent="1" source="LzSMEyJ2_mdjWp6q9Ydg-56" target="LzSMEyJ2_mdjWp6q9Ydg-93">
          <mxGeometry relative="1" as="geometry">
            <Array as="points">
              <mxPoint x="885" y="530" />
              <mxPoint x="973" y="530" />
            </Array>
          </mxGeometry>
        </mxCell>
        <mxCell id="LzSMEyJ2_mdjWp6q9Ydg-56" value="数据运维人员" style="rounded=1;fillColor=#10739E;strokeColor=none;shadow=1;gradientColor=none;fontStyle=1;fontColor=#FFFFFF;fontSize=14;" vertex="1" parent="1">
          <mxGeometry x="820" y="456.63" width="130" height="42.25" as="geometry" />
        </mxCell>
        <mxCell id="LzSMEyJ2_mdjWp6q9Ydg-101" style="edgeStyle=orthogonalEdgeStyle;rounded=0;orthogonalLoop=1;jettySize=auto;html=1;entryX=0.5;entryY=0;entryDx=0;entryDy=0;" edge="1" parent="1" source="LzSMEyJ2_mdjWp6q9Ydg-57" target="LzSMEyJ2_mdjWp6q9Ydg-98">
          <mxGeometry relative="1" as="geometry" />
        </mxCell>
        <mxCell id="LzSMEyJ2_mdjWp6q9Ydg-103" style="edgeStyle=orthogonalEdgeStyle;rounded=0;orthogonalLoop=1;jettySize=auto;html=1;entryX=0.5;entryY=0;entryDx=0;entryDy=0;" edge="1" parent="1" source="LzSMEyJ2_mdjWp6q9Ydg-57" target="LzSMEyJ2_mdjWp6q9Ydg-100">
          <mxGeometry relative="1" as="geometry" />
        </mxCell>
        <mxCell id="LzSMEyJ2_mdjWp6q9Ydg-104" style="edgeStyle=orthogonalEdgeStyle;rounded=0;orthogonalLoop=1;jettySize=auto;html=1;" edge="1" parent="1" target="LzSMEyJ2_mdjWp6q9Ydg-102">
          <mxGeometry relative="1" as="geometry">
            <mxPoint x="1090" y="530" as="sourcePoint" />
          </mxGeometry>
        </mxCell>
        <mxCell id="LzSMEyJ2_mdjWp6q9Ydg-57" value="数据监管人员" style="rounded=1;fillColor=#10739E;strokeColor=none;shadow=1;gradientColor=none;fontStyle=1;fontColor=#FFFFFF;fontSize=14;" vertex="1" parent="1">
          <mxGeometry x="990" y="457.75" width="130" height="42.25" as="geometry" />
        </mxCell>
        <mxCell id="LzSMEyJ2_mdjWp6q9Ydg-60" value="用户管理" style="rounded=0;whiteSpace=wrap;html=1;textDirection=vertical-lr;" vertex="1" parent="1">
          <mxGeometry x="302" y="560" width="34" height="170" as="geometry" />
        </mxCell>
        <mxCell id="LzSMEyJ2_mdjWp6q9Ydg-69" value="架构管理" style="rounded=0;whiteSpace=wrap;html=1;textDirection=vertical-lr;" vertex="1" parent="1">
          <mxGeometry x="340" y="560" width="34" height="170" as="geometry" />
        </mxCell>
        <mxCell id="LzSMEyJ2_mdjWp6q9Ydg-70" value="系统参数设置" style="rounded=0;whiteSpace=wrap;html=1;textDirection=vertical-lr;" vertex="1" parent="1">
          <mxGeometry x="380" y="560" width="34" height="170" as="geometry" />
        </mxCell>
        <mxCell id="LzSMEyJ2_mdjWp6q9Ydg-75" value="角色权限分配" style="rounded=0;whiteSpace=wrap;html=1;textDirection=vertical-lr;" vertex="1" parent="1">
          <mxGeometry x="460" y="560" width="34" height="170" as="geometry" />
        </mxCell>
        <mxCell id="LzSMEyJ2_mdjWp6q9Ydg-76" value="人员权限分配" style="rounded=0;whiteSpace=wrap;html=1;textDirection=vertical-lr;" vertex="1" parent="1">
          <mxGeometry x="500" y="560" width="34" height="170" as="geometry" />
        </mxCell>
        <mxCell id="LzSMEyJ2_mdjWp6q9Ydg-77" value="审计" style="rounded=0;whiteSpace=wrap;html=1;textDirection=vertical-lr;" vertex="1" parent="1">
          <mxGeometry x="542" y="560" width="34" height="170" as="geometry" />
        </mxCell>
        <mxCell id="LzSMEyJ2_mdjWp6q9Ydg-78" value="操作日志" style="rounded=0;whiteSpace=wrap;html=1;textDirection=vertical-lr;" vertex="1" parent="1">
          <mxGeometry x="584" y="560" width="34" height="170" as="geometry" />
        </mxCell>
        <mxCell id="LzSMEyJ2_mdjWp6q9Ydg-85" value="审计安全管理员日志" style="rounded=0;whiteSpace=wrap;html=1;textDirection=vertical-lr;" vertex="1" parent="1">
          <mxGeometry x="650" y="560" width="34" height="170" as="geometry" />
        </mxCell>
        <mxCell id="LzSMEyJ2_mdjWp6q9Ydg-86" value="审计系统管理员日志" style="rounded=0;whiteSpace=wrap;html=1;textDirection=vertical-lr;" vertex="1" parent="1">
          <mxGeometry x="730" y="560" width="34" height="170" as="geometry" />
        </mxCell>
        <mxCell id="LzSMEyJ2_mdjWp6q9Ydg-90" value="数据整合萃取" style="rounded=0;whiteSpace=wrap;html=1;textDirection=vertical-lr;" vertex="1" parent="1">
          <mxGeometry x="810" y="560" width="34" height="170" as="geometry" />
        </mxCell>
        <mxCell id="LzSMEyJ2_mdjWp6q9Ydg-91" value="数据加工" style="rounded=0;whiteSpace=wrap;html=1;textDirection=vertical-lr;" vertex="1" parent="1">
          <mxGeometry x="860" y="560" width="34" height="170" as="geometry" />
        </mxCell>
        <mxCell id="LzSMEyJ2_mdjWp6q9Ydg-92" value="数据稽核清洗" style="rounded=0;whiteSpace=wrap;html=1;textDirection=vertical-lr;" vertex="1" parent="1">
          <mxGeometry x="910" y="560" width="34" height="170" as="geometry" />
        </mxCell>
        <mxCell id="LzSMEyJ2_mdjWp6q9Ydg-93" value="数据资产归档" style="rounded=0;whiteSpace=wrap;html=1;textDirection=vertical-lr;" vertex="1" parent="1">
          <mxGeometry x="956" y="560" width="34" height="170" as="geometry" />
        </mxCell>
        <mxCell id="LzSMEyJ2_mdjWp6q9Ydg-98" value="数据整合萃取审批" style="rounded=0;whiteSpace=wrap;html=1;textDirection=vertical-lr;" vertex="1" parent="1">
          <mxGeometry x="1020" y="560" width="34" height="170" as="geometry" />
        </mxCell>
        <mxCell id="LzSMEyJ2_mdjWp6q9Ydg-100" value="数据治理审批" style="rounded=0;whiteSpace=wrap;html=1;textDirection=vertical-lr;" vertex="1" parent="1">
          <mxGeometry x="1080" y="560" width="34" height="170" as="geometry" />
        </mxCell>
        <mxCell id="LzSMEyJ2_mdjWp6q9Ydg-102" value="数据资产发布审批" style="rounded=0;whiteSpace=wrap;html=1;textDirection=vertical-lr;" vertex="1" parent="1">
          <mxGeometry x="1130" y="560" width="34" height="170" as="geometry" />
        </mxCell>
        <mxCell id="LzSMEyJ2_mdjWp6q9Ydg-105" value="数据查看" style="rounded=0;whiteSpace=wrap;html=1;textDirection=vertical-lr;" vertex="1" parent="1">
          <mxGeometry x="1180" y="560" width="34" height="170" as="geometry" />
        </mxCell>
        <mxCell id="LzSMEyJ2_mdjWp6q9Ydg-106" value="数据申请" style="rounded=0;whiteSpace=wrap;html=1;textDirection=vertical-lr;" vertex="1" parent="1">
          <mxGeometry x="1230" y="560" width="34" height="170" as="geometry" />
        </mxCell>
        <mxCell id="LzSMEyJ2_mdjWp6q9Ydg-107" value="数据使用" style="rounded=0;whiteSpace=wrap;html=1;textDirection=vertical-lr;" vertex="1" parent="1">
          <mxGeometry x="1290" y="560" width="34" height="170" as="geometry" />
        </mxCell>
      </root>
    </mxGraphModel>
  </diagram>
</mxfile>
